<?xml version="1.0" encoding="UTF-8" standalone="no"?>
<svg
   xmlns:dc="http://purl.org/dc/elements/1.1/"
   xmlns:cc="http://creativecommons.org/ns#"
   xmlns:rdf="http://www.w3.org/1999/02/22-rdf-syntax-ns#"
   xmlns:svg="http://www.w3.org/2000/svg"
   xmlns="http://www.w3.org/2000/svg"
   id="svg4"
   viewBox="0 0 24 24"
   height="24"
   width="24"
   version="1.1">
  <metadata
     id="metadata10">
    <rdf:RDF>
      <cc:Work
         rdf:about="">
        <dc:format>image/svg+xml</dc:format>
        <dc:type
           rdf:resource="http://purl.org/dc/dcmitype/StillImage" />
        <dc:title></dc:title>
      </cc:Work>
    </rdf:RDF>
  </metadata>
  <defs
     id="defs8" />
  <path
     id="rect4580"
     style=""
     d="M8.0 7.65625C8.0 7.65625 16.0 7.65625 16.0 7.65625C16.0 7.65625 16.0 20.0 16.0 20.0C16.0 20.0 8.0 20.0 8.0 20.0C8.0 20.0 8.0 7.65625 8.0 7.65625M3.0 4.0C3.0 4.0 21.0 4.0 21.0 4.0C21.0 4.0 21.0 8.0 21.0 8.0C21.0 8.0 19.0 8.0 19.0 8.0C19.0 8.0 19.0 20.0 19.0 20.0C19.0 20.0 17.0 20.0 17.0 20.0C17.0 20.0 17.0 8.0 17.0 8.0C17.0 8.0 7.0 8.0 7.0 8.0C7.0 8.0 7.0 20.0 7.0 20.0C7.0 20.0 5.0 20.0 5.0 20.0C5.0 20.0 5.0 8.0 5.0 8.0C5.0 8.0 3.0 8.0 3.0 8.0C3.0 8.0 3.0 4.0 3.0 4.0M8.0 9.0C8.0 9.0 16.0 9.0 16.0 9.0C16.0 9.0 16.0 11.0 16.0 11.0C16.0 11.0 8.0 11.0 8.0 11.0C8.0 11.0 8.0 9.0 8.0 9.0M8.0 12.0C8.0 12.0 16.0 12.0 16.0 12.0C16.0 12.0 16.0 14.0 16.0 14.0C16.0 14.0 8.0 14.0 8.0 14.0C8.0 14.0 8.0 12.0 8.0 12.0M8.0 15.0C8.0 15.0 16.0 15.0 16.0 15.0C16.0 15.0 16.0 17.0 16.0 17.0C16.0 17.0 8.0 17.0 8.0 17.0C8.0 17.0 8.0 15.0 8.0 15.0M8.0 18.0C8.0 18.0 16.0 18.0 16.0 18.0C16.0 18.0 16.0 20.0 16.0 20.0C16.0 20.0 8.0 20.0 8.0 20.0C8.0 20.0 8.0 18.0 8.0 18.0" />
</svg>
