<?xml version="1.0" encoding="UTF-8" standalone="no"?>
<svg
   xmlns:dc="http://purl.org/dc/elements/1.1/"
   xmlns:cc="http://creativecommons.org/ns#"
   xmlns:rdf="http://www.w3.org/1999/02/22-rdf-syntax-ns#"
   xmlns:svg="http://www.w3.org/2000/svg"
   xmlns="http://www.w3.org/2000/svg"
   id="svg4"
   viewBox="0 0 24 24"
   height="24"
   width="24"
   version="1.1">
  <metadata
     id="metadata10">
    <rdf:RDF>
      <cc:Work
         rdf:about="">
        <dc:format>image/svg+xml</dc:format>
        <dc:type
           rdf:resource="http://purl.org/dc/dcmitype/StillImage" />
        <dc:title></dc:title>
      </cc:Work>
    </rdf:RDF>
  </metadata>
  <defs
     id="defs8" />
  <path
     id="path2"
     d="M3.0 4.0C3.0 4.0 3.0 8.0 3.0 8.0C3.0 8.0 5.0 8.0 5.0 8.0C5.0 8.0 5.0 20.0 5.0 20.0C5.0 20.0 7.0 20.0 7.0 20.0C7.0 20.0 7.0 8.0 7.0 8.0C7.0 8.0 17.0 8.0 17.0 8.0C17.0 8.0 17.0 20.0 17.0 20.0C17.0 20.0 19.0 20.0 19.0 20.0C19.0 20.0 19.0 8.0 19.0 8.0C19.0 8.0 21.0 8.0 21.0 8.0C21.0 8.0 21.0 4.0 21.0 4.0C21.0 4.0 3.0 4.0 3.0 4.0M8.0 9.0C8.0 9.0 8.0 11.0 8.0 11.0C8.0 11.0 16.0 11.0 16.0 11.0C16.0 11.0 16.0 9.0 16.0 9.0C16.0 9.0 8.0 9.0 8.0 9.0M8.0 12.0C8.0 12.0 8.0 14.0 8.0 14.0C8.0 14.0 16.0 14.0 16.0 14.0C16.0 14.0 16.0 12.0 16.0 12.0C16.0 12.0 8.0 12.0 8.0 12.0M8.6464844 15.0C8.6576344 15.02339 8.6692714 15.04656 8.6796874 15.07031C8.7053464 15.05919 8.7306444 15.05262 8.7558594 15.04297C8.7566908 15.03263 8.7552851 15.02925 8.7558594 15.01953C8.7550879 15.01303 8.7547694 15.00649 8.7539094 15.0C8.7539094 15.0 8.6464844 15.0 8.6464844 15.0M11.921875 15.0078C11.910475 15.0049 11.933275 15.0254 11.939455 15.03905C11.939949 15.03125 11.941055 15.02346 11.941455 15.01561C11.932655 15.01311 11.930815 15.01011 11.921925 15.00781C11.921925 15.00781 11.921875 15.0078 11.921875 15.0078M8.6796875 15.07421C8.6885375 15.09453 8.6987805 15.11412 8.7070315 15.13476C8.7105015 15.13846 8.7133515 15.14276 8.7168015 15.14648C8.7221415 15.13268 8.7290915 15.11907 8.7343795 15.10547C8.7451285 15.07782 8.7148055 15.07137 8.6796925 15.07422C8.6796925 15.07422 8.6796875 15.07421 8.6796875 15.07421M8.6054685 15.09179C8.6035885 15.092511 8.5968185 15.09319 8.5956985 15.09379C8.5927885 15.09529 8.6024085 15.09649 8.6054685 15.09769C8.6068785 15.097049 8.6079685 15.09639 8.6093785 15.09569C8.6080585 15.09439 8.6067885 15.09309 8.6054685 15.09179C8.6054685 15.09179 8.6054685 15.09179 8.6054685 15.09179M16.0 15.912109C15.9953 15.926829 15.992 15.942009 15.98828 15.957029C15.99218 15.957668 15.99588 15.958529 16.0 15.959029C16.0 15.959029 16.0 15.912109 16.0 15.912109M12.792969 16.277344C12.787969 16.278004 12.785169 16.279344 12.779299 16.283244C12.778908 16.286744 12.779863 16.285344 12.779299 16.289144C12.793259 16.283844 12.817869 16.287844 12.828129 16.279344C12.837329 16.271744 12.804759 16.275844 12.792969 16.277344C12.792969 16.277344 12.792969 16.277344 12.792969 16.277344M14.986328 16.730469C14.983628 16.735569 14.981128 16.740959 14.978528 16.746099C14.982428 16.741499 14.986328 16.737099 14.990248 16.732429C14.987948 16.731966 14.988648 16.730929 14.986348 16.730429C14.986348 16.730429 14.986328 16.730469 14.986328 16.730469M16.0 16.820312C16.0 16.820312 15.94727 16.855472 15.94727 16.855472C15.93787 16.864972 15.92816 16.873882 15.91797 16.882812C15.94586 16.903132 15.97248 16.924732 16.0 16.945312C16.0 16.945312 16.0 16.820312 16.0 16.820312M14.898438 16.896482C14.894638 16.907352 14.897851 16.900282 14.894538 16.910152C14.894713 16.942432 14.898038 16.951762 14.898438 16.998042C14.898699 17.031792 14.909518 16.864601 14.898438 16.896479C14.898438 16.896479 14.898438 16.896482 14.898438 16.896482M15.900391 18.015623C15.887161 18.020523 15.883311 18.028473 15.865231 18.039063C15.893031 18.035663 15.919411 18.025693 15.947261 18.023443C15.931811 18.019843 15.915901 18.018443 15.900391 18.015643C15.900391 18.015643 15.900391 18.015623 15.900391 18.015623M8.6035156 18.45117C8.6144926 18.46294 8.6175986 18.47345 8.6269526 18.48437C8.6241226 18.47767 8.6262066 18.47827 8.6230426 18.4707C8.6198226 18.463 8.6163926 18.4618 8.6074176 18.45117C8.6061776 18.451285 8.6047576 18.451055 8.6035076 18.45117C8.6035076 18.45117 8.6035156 18.45117 8.6035156 18.45117M8.6542966 18.654295C8.5805276 18.769006 8.5531728 18.815376 8.6425776 18.718745C8.6465776 18.695965 8.6492976 18.683105 8.6542966 18.654295C8.6542966 18.654295 8.6542966 18.654295 8.6542966 18.654295M13.6621087 19.191404C13.6467487 19.193504 13.6253087 19.195804 13.6347687 19.195304C13.6459287 19.194698 13.6568787 19.195852 13.6679687 19.195304C13.6683447 19.194104 13.6582687 19.192104 13.6620687 19.191404C13.6620687 19.191404 13.6621087 19.191404 13.6621087 19.191404M16.0 19.884766C15.9941 19.892566 15.98814 19.900316 15.98242 19.908206C15.97352 19.936956 15.96201 19.968296 15.94531 20.000006C15.94531 20.000006 16.0 20.000006 16.0 20.000006C16.0 20.000006 16.0 19.884766 16.0 19.884766M8.8652344 19.9375C8.8404994 19.95825 8.8169638 19.97936 8.7929688 20.0C8.7929688 20.0 8.8925778 20.0 8.8925778 20.0C8.8847778 19.9793 8.8770918 19.95851 8.8671868 19.9375C8.8671868 19.9375 8.8652344 19.9375 8.8652344 19.9375M15.921875 19.98828C15.919075 19.99198 15.916775 19.99618 15.914075 20.0C15.914075 20.0 15.927745 20.0 15.927745 20.0C15.925945 19.996 15.923445 19.9923 15.921845 19.98828C15.921845 19.98828 15.921875 19.98828 15.921875 19.98828" />
</svg>
