<?xml version="1.0" encoding="UTF-8" standalone="no"?>
<svg
   xmlns:dc="http://purl.org/dc/elements/1.1/"
   xmlns:cc="http://creativecommons.org/ns#"
   xmlns:rdf="http://www.w3.org/1999/02/22-rdf-syntax-ns#"
   xmlns:svg="http://www.w3.org/2000/svg"
   xmlns="http://www.w3.org/2000/svg"
   id="svg4"
   viewBox="0 0 24 24"
   height="24"
   width="24"
   version="1.1">
  <metadata
     id="metadata10">
    <rdf:RDF>
      <cc:Work
         rdf:about="">
        <dc:format>image/svg+xml</dc:format>
        <dc:type
           rdf:resource="http://purl.org/dc/dcmitype/StillImage" />
        <dc:title></dc:title>
      </cc:Work>
    </rdf:RDF>
  </metadata>
  <defs
     id="defs8" />
  <path
     id="path2"
     d="M3.0 4.0C3.0 4.0 3.0 8.0 3.0 8.0C3.0 8.0 5.0 8.0 5.0 8.0C5.0 8.0 5.0 20.0 5.0 20.0C5.0 20.0 7.0 20.0 7.0 20.0C7.0 20.0 7.0 8.0 7.0 8.0C7.0 8.0 17.0 8.0 17.0 8.0C17.0 8.0 17.0 20.0 17.0 20.0C17.0 20.0 19.0 20.0 19.0 20.0C19.0 20.0 19.0 8.0 19.0 8.0C19.0 8.0 21.0 8.0 21.0 8.0C21.0 8.0 21.0 4.0 21.0 4.0C21.0 4.0 3.0 4.0 3.0 4.0M8.0 9.0C8.0 9.0 8.0 11.0 8.0 11.0C8.0 11.0 16.0 11.0 16.0 11.0C16.0 11.0 16.0 9.0 16.0 9.0C16.0 9.0 8.0 9.0 8.0 9.0M8.0 12.0C8.0 12.0 8.0 14.0 8.0 14.0C8.0 14.0 16.0 14.0 16.0 14.0C16.0 14.0 16.0 12.0 16.0 12.0C16.0 12.0 8.0 12.0 8.0 12.0M8.0 15.0C8.0 15.0 8.0 17.0 8.0 17.0C8.0 17.0 16.0 17.0 16.0 17.0C16.0 17.0 16.0 15.0 16.0 15.0C16.0 15.0 8.0 15.0 8.0 15.0M15.900391 18.015625C15.887161 18.020525 15.883311 18.028475 15.865231 18.039065C15.893031 18.035665 15.919411 18.025705 15.947261 18.023445C15.931811 18.019845 15.915911 18.018445 15.900391 18.015645C15.900391 18.015645 15.900391 18.015625 15.900391 18.015625M8.6035156 18.451172C8.6144926 18.462942 8.6175976 18.473452 8.6269526 18.484372C8.6241226 18.477672 8.6262028 18.478272 8.6230426 18.470702C8.6198226 18.463002 8.6163926 18.461802 8.6074176 18.451172C8.6061776 18.451287 8.6047576 18.451057 8.6035076 18.451172C8.6035076 18.451172 8.6035156 18.451172 8.6035156 18.451172M8.6542966 18.654297C8.5805276 18.769008 8.5531726 18.815375 8.6425776 18.718747C8.6465776 18.695967 8.6492976 18.683107 8.6542966 18.654297C8.6542966 18.654297 8.6542966 18.654297 8.6542966 18.654297M13.662109 19.191406C13.646749 19.193506 13.625309 19.195806 13.634769 19.195306C13.645929 19.194699 13.656879 19.195853 13.667969 19.195306C13.668345 19.194106 13.658269 19.192106 13.662069 19.191406C13.662069 19.191406 13.662109 19.191406 13.662109 19.191406M16.0 19.884766C15.9941 19.892566 15.98814 19.900316 15.98242 19.908206C15.97352 19.936956 15.96201 19.968296 15.94531 20.000006C15.94531 20.000006 16.0 20.000006 16.0 20.000006C16.0 20.000006 16.0 19.884766 16.0 19.884766M8.8652344 19.9375C8.8404994 19.95825 8.8169634 19.97936 8.7929684 20.0C8.7929684 20.0 8.8925774 20.0 8.8925774 20.0C8.8847774 19.9793 8.8770914 19.95851 8.8671864 19.9375C8.8671864 19.9375 8.8652364 19.9375 8.8652364 19.9375C8.8652364 19.9375 8.8652344 19.9375 8.8652344 19.9375M15.921875 19.98828C15.919075 19.99198 15.916775 19.99618 15.914075 20.0C15.914075 20.0 15.927745 20.0 15.927745 20.0C15.925945 19.996 15.923445 19.9923 15.921845 19.98828C15.921845 19.98828 15.921875 19.98828 15.921875 19.98828" />
</svg>
